<svg width="1009" height="1005" viewBox="0 0 1009 1005" fill="none" xmlns="http://www.w3.org/2000/svg">
<path d="M242.63 60.6123C208.752 109.111 248.475 187.739 198.205 224.214C149.272 259.72 89.1577 201.521 43.0409 232.085C-25.371 277.423 -12.8776 484.884 87.144 613.784C117.224 652.549 142.358 667.632 153.489 711.472C177.392 805.61 93.3857 861.609 109.372 908.168C145.367 1013 698.946 1100.97 921.067 785.909C1024.81 638.764 1040.33 426.284 947.64 264.904C780.155 -26.7063 318.647 -48.2101 242.63 60.6123Z" fill="#F4F7FA"/>
<path d="M411.766 684.735C417.182 682.376 426.883 672.467 428.347 668.841C438.089 644.714 459.263 600.725 450.057 574.804C448.484 570.377 427.143 572.037 423.123 568.722C409.259 566.478 404.311 566.559 392.179 557.951C356.363 532.537 398.192 453.163 322.26 451.564C266.641 450.394 228.675 480.455 211.19 399.712C193.706 318.97 89.086 192.953 21.5304 272.418C-17.2401 318.024 50.9846 371.202 40.7115 428.011C30.9496 481.994 62.2199 515.029 120.554 528.799C178.889 542.567 158.432 572.103 156.877 621.163C155.009 680.095 240.622 665.596 279.576 655.531C310.945 647.425 396.289 647.95 411.766 684.735Z" fill="url(#paint0_linear_9_230)"/>
<mask id="mask0_9_230" style="mask-type:luminance" maskUnits="userSpaceOnUse" x="9" y="247" width="444" height="438">
<path d="M411.766 684.735C417.182 682.376 426.883 672.467 428.347 668.841C438.089 644.714 459.263 600.725 450.057 574.804C448.484 570.377 427.143 572.037 423.123 568.722C409.259 566.478 404.311 566.559 392.179 557.951C356.363 532.537 398.192 453.163 322.26 451.564C266.641 450.394 228.675 480.455 211.19 399.712C193.706 318.97 89.086 192.953 21.5304 272.418C-17.2401 318.024 50.9846 371.202 40.7115 428.011C30.9496 481.994 62.2199 515.029 120.554 528.799C178.889 542.567 158.432 572.103 156.877 621.163C155.009 680.095 240.622 665.596 279.576 655.531C310.945 647.425 396.289 647.95 411.766 684.735Z" fill="white"/>
</mask>
<g mask="url(#mask0_9_230)">
<path d="M439.158 624.299L439.371 623.062C248.701 590.13 98.2308 447.643 36.8638 241.908L35.6594 242.267C64.7434 339.771 115.889 426.309 183.568 492.527C254.718 562.143 343.1 607.708 439.158 624.299Z" fill="#FCFDFE"/>
<path d="M153.29 645.568C196.986 615.708 277.636 591.836 333.074 592.352L333.085 591.096C277.43 590.578 196.456 614.549 152.582 644.531L153.29 645.568Z" fill="#FCFDFE"/>
<path d="M401.802 617.406L402.35 616.275C376.425 603.693 357.856 578.487 347.16 541.359C339.318 514.135 335.812 481.253 336.741 443.626L335.485 443.595C334.553 481.35 338.075 514.36 345.953 541.706C356.751 579.192 375.542 604.661 401.802 617.406Z" fill="#FCFDFE"/>
<path d="M174.326 482.755L174.932 481.654C127.284 455.424 70.3817 461.221 31.0369 470.703L31.3318 471.925C70.4603 462.495 127.031 456.718 174.326 482.755Z" fill="#FCFDFE"/>
<path d="M98.0238 384.365L99.2019 383.929C77.9146 326.47 96.6773 264.949 109.756 233.392L108.595 232.91C95.4461 264.638 76.5875 326.504 98.0238 384.365Z" fill="#FCFDFE"/>
</g>
<path d="M407.175 598.448C413.344 597.988 426.36 591.548 429.061 588.471C447.034 567.99 483.176 531.831 483.039 503.026C483.016 498.106 461.347 492.367 458.519 487.699C445.592 480.687 440.672 479.056 431.657 466.352C405.042 428.846 473.838 364.852 399.334 337.014C344.762 316.623 296.838 333.208 307.476 247.351C318.115 161.494 258.281 0.75114 164.024 55.9388C109.93 87.6113 158.978 163.769 129.178 216.37C100.861 266.355 120.346 309.823 173.246 343.606C226.146 377.388 195.712 399.509 177.209 447.465C154.983 505.071 244.623 520.346 286.608 523.867C320.419 526.703 404.598 556.735 407.175 598.448Z" fill="url(#paint1_linear_9_230)"/>
<mask id="mask1_9_230" style="mask-type:luminance" maskUnits="userSpaceOnUse" x="116" y="44" width="368" height="555">
<path d="M407.175 598.448C413.344 597.988 426.36 591.548 429.061 588.471C447.034 567.99 483.176 531.831 483.039 503.026C483.016 498.106 461.347 492.367 458.519 487.699C445.592 480.687 440.672 479.056 431.657 466.352C405.042 428.846 473.838 364.852 399.334 337.014C344.762 316.623 296.838 333.208 307.476 247.351C318.115 161.494 258.281 0.75114 164.024 55.9388C109.93 87.6113 158.978 163.769 129.178 216.37C100.861 266.355 120.346 309.823 173.246 343.606C226.146 377.388 195.712 399.509 177.209 447.465C154.983 505.071 244.623 520.346 286.608 523.867C320.419 526.703 404.598 556.735 407.175 598.448Z" fill="white"/>
</mask>
<g mask="url(#mask1_9_230)">
<path d="M455.15 548.181L455.789 547.031C278.706 448.544 179.246 255.666 189.732 31.0828L188.417 31.0208C183.448 137.457 204.078 240.684 248.076 329.542C294.332 422.96 365.937 498.564 455.15 548.181Z" fill="#FCFDFE"/>
<path d="M165.225 470.348C218.742 455.943 306.718 460.236 361.337 479.918L361.783 478.68C306.948 458.922 218.62 454.614 164.883 469.078L165.225 470.348Z" fill="#FCFDFE"/>
<path d="M420.61 528.449L421.542 527.521C400.267 506.118 390.629 474.782 392.896 434.384C394.558 404.761 402.464 371.047 416.394 334.174L415.163 333.71C401.186 370.707 393.252 404.554 391.583 434.309C389.293 475.097 399.059 506.77 420.61 528.449Z" fill="#FCFDFE"/>
<path d="M242.321 316.688L243.301 315.809C205.273 273.404 147.022 259.457 104.852 255.224L104.721 256.534C146.66 260.743 204.575 274.596 242.321 316.688Z" fill="#FCFDFE"/>
<path d="M200.923 193.047L202.239 193.023C201.067 128.866 240.888 74.5431 264.728 47.8718L263.747 46.9946C239.778 73.8102 199.743 128.441 200.923 193.047Z" fill="#FCFDFE"/>
</g>
<path d="M355.135 146.11L186.533 437.328C183.452 442.651 187.542 449.261 193.68 448.88L657.482 442.325L779.746 181.478L431.087 128.441L355.135 146.11Z" fill="url(#paint2_linear_9_230)"/>
<path d="M360.183 146.11L191.581 437.328C188.499 442.651 192.589 449.261 198.727 448.88L662.529 442.325L784.793 181.478L436.134 128.441L360.183 146.11Z" fill="url(#paint3_linear_9_230)"/>
<path d="M362.806 151.064L202.843 442.576L647.818 470.548L742.599 200.783L362.806 151.064Z" fill="url(#paint4_linear_9_230)"/>
<path d="M732.505 181.477L422.11 144.003L362.806 151.064L246.724 420.673L777.633 448.77L732.505 181.477Z" fill="url(#paint5_linear_9_230)"/>
<path d="M732.505 181.477L422.11 144.003L379.285 149.102L290.622 437.19L777.633 448.77L732.505 181.477Z" fill="url(#paint6_linear_9_230)"/>
<path d="M732.504 181.477L422.11 144.003L396.634 147.036L347.665 430.425L777.633 448.77L732.504 181.477Z" fill="url(#paint7_linear_9_230)"/>
<path d="M422.11 144.003L457.86 427.118L739.386 442.325L525.154 167.977L422.11 144.003Z" fill="url(#paint8_linear_9_230)"/>
<path d="M676.184 427.244L432.028 133.492L780.687 181.477L987.492 442.781C995.086 452.02 987.872 465.851 975.949 464.913L709.011 443.888C696.302 442.886 684.503 436.904 676.184 427.244Z" fill="url(#paint9_linear_9_230)"/>
<path d="M682.813 427.244L438.657 133.492L787.317 181.477L994.121 442.781C1001.72 452.02 994.502 465.851 982.579 464.913L715.64 443.888C702.931 442.886 691.132 436.904 682.813 427.244Z" fill="url(#paint10_linear_9_230)"/>
<path d="M787.317 181.477L432.028 133.492L356.077 146.11L356.077 135.171C376.152 120.155 402.703 118.494 432.028 122.553L787.316 174.706L787.317 181.477Z" fill="url(#paint11_linear_9_230)"/>
<path d="M544.501 185.641L679.51 343.363L772.881 352.195L648.586 204.568L544.501 185.641Z" fill="white"/>
<path d="M656.092 741.155L924.152 733.569C953.855 732.212 977.505 755.184 977.505 784.748V785.073C977.505 814.637 957.222 837.127 927.518 839.791L667.061 860.549L656.092 741.155Z" fill="url(#paint12_linear_9_230)"/>
<path d="M202.806 827.289L659.732 854.874C686.844 856.511 709.008 837.284 709.008 811.916V794.707C709.008 769.339 686.844 747.847 659.732 746.712L202.807 727.593L202.806 827.289Z" fill="#EAEDF3"/>
<path d="M198.62 832.35L656.092 860.42C691.451 862.589 720.536 837.41 720.536 804.265V803.901C720.536 770.757 691.451 742.602 656.092 741.155L198.62 722.437C195.722 722.318 193.375 724.598 193.375 727.53C193.375 730.461 195.722 732.939 198.62 733.063L656.092 752.685C684.56 753.907 707.926 776.598 707.926 803.257V803.62C707.926 830.279 684.56 850.58 656.092 848.89L198.62 821.723C195.722 821.551 193.375 823.788 193.375 826.72C193.375 829.651 195.722 832.172 198.62 832.35Z" fill="url(#paint13_linear_9_230)"/>
<path d="M645.488 559.117L924.152 568.544C953.855 569.15 977.505 605.747 977.505 650.138V650.626C977.505 695.017 953.856 732.212 924.152 733.57L663.712 740.828L645.488 559.117Z" fill="url(#paint14_linear_9_230)"/>
<path d="M202.806 714.624L635.329 731.68C675.791 733.276 709.008 703.707 709.008 665.617V639.777C709.008 601.686 675.791 570.422 635.329 569.952L202.806 564.929V714.624Z" fill="#EAEDF3"/>
<path d="M198.62 722.436L656.092 741.155C691.451 742.602 720.536 703.304 720.536 653.538V652.991C720.536 603.225 691.451 562.44 656.092 562.079L198.62 557.402C195.722 557.372 193.375 560.917 193.375 565.318C193.375 569.72 195.722 573.319 198.62 573.357L656.092 579.391C684.56 579.767 707.926 612.641 707.926 652.67V653.216C707.926 693.245 684.56 724.923 656.092 723.843L198.62 706.482C195.722 706.372 193.375 709.851 193.375 714.253C193.375 718.654 195.722 722.318 198.62 722.436Z" fill="url(#paint15_linear_9_230)"/>
<path d="M679.339 557.716L927.259 563.301C950.046 563.814 968.214 545.774 968.214 523.015V507.576C968.214 484.817 950.046 465.234 927.259 463.811L679.339 448.336V557.716Z" fill="#D8DEE8"/>
<path d="M714.224 562.673L924.152 568.544C953.856 569.149 977.506 545.58 977.506 516.015V515.69C977.506 486.126 953.856 460.55 924.152 458.637L714.224 442.22C710.543 441.987 667.837 444.749 667.837 447.984C667.837 451.22 707.725 453.671 711.381 453.888L924.152 469.262C948.15 470.706 967.337 491.329 967.337 515.258V515.585C967.337 539.514 948.15 558.51 924.152 557.918L714.224 551.028C710.568 550.932 667.836 554.222 667.836 557.457C667.837 560.693 710.546 562.59 714.224 562.673Z" fill="url(#paint16_linear_9_230)"/>
<path d="M202.806 552.127L709.008 556.802V447.727L202.806 452.431V552.127Z" fill="#EAEDF3"/>
<path d="M198.62 458.115L714.224 453.865C717.708 453.836 720.536 451.203 720.536 447.984C720.536 444.765 717.708 442.184 714.224 442.22L198.62 447.489C195.722 447.518 193.375 449.919 193.375 452.85C193.375 455.782 195.722 458.139 198.62 458.115Z" fill="url(#paint17_linear_9_230)"/>
<path d="M198.62 557.401L714.224 562.673C717.708 562.708 720.536 560.128 720.536 556.908C720.536 553.689 717.708 551.056 714.224 551.028L198.62 546.776C195.722 546.752 193.375 549.109 193.375 552.04C193.375 554.971 195.722 557.372 198.62 557.401Z" fill="url(#paint18_linear_9_230)"/>
<path opacity="0.5" d="M733.514 716.241L788.871 713.08C802.249 674.943 801.238 638.167 788.871 593.426L733.514 593.594C744.611 639.27 742.923 679.668 733.514 716.241Z" fill="white"/>
<path opacity="0.3" d="M848.263 567.685L850.024 498.636L913.57 568.592C913.57 568.592 947.909 587.101 942.011 619.599L902.728 603.97L867.834 616.061C867.834 616.061 866.959 581.929 848.263 567.685Z" fill="url(#paint19_linear_9_230)"/>
<path d="M920.715 502.957L850.024 498.636C850.024 498.636 883.27 523.897 867.834 616.061C867.834 616.061 898.056 606.461 911.202 590.025L942.011 619.598C942.011 619.598 960.822 537.656 920.715 502.957Z" fill="url(#paint20_linear_9_230)"/>
<path d="M272.855 513.979C272.855 513.979 206.828 412.501 134.524 594.886C78.2227 736.905 127.572 888.95 277.12 923.442C426.669 957.933 652.189 860.233 576.774 803.837C416.802 684.206 294.523 577.131 272.855 513.979Z" fill="url(#paint21_linear_9_230)"/>
<g opacity="0.35">
<path d="M207.669 612.055C204.32 625.04 199.303 661.178 203.327 702.625C206.917 739.597 204.583 759.151 264.975 782.972C285.675 791.137 301.21 819.712 333.079 835.508C347.528 842.67 401.896 868.469 469.532 853.282C514.283 843.233 546.729 819.296 568.274 797.453C412.497 680.407 294.137 576.004 272.855 513.979C272.855 513.979 248.731 476.932 213.685 487.868C222.814 497.019 233.069 511.094 236.907 530.54C242.341 558.063 218.657 569.45 207.669 612.055Z" fill="url(#paint22_linear_9_230)"/>
</g>
<g opacity="0.13">
<path d="M510.642 868.798C443.025 910.967 327.929 940.63 237.827 880.857C154.4 825.513 141.944 726.063 137.649 695.738C130.143 642.742 138.081 595.826 151.092 557.631C145.625 568.486 140.093 580.838 134.525 594.886C78.2229 736.904 127.573 888.95 277.121 923.441C424.324 957.391 645.132 863.266 580.102 806.52C563.58 827.279 541.001 849.865 510.642 868.798Z" fill="url(#paint23_linear_9_230)"/>
</g>
<path d="M380.715 555.469C386.017 551.616 380.462 541.524 378.984 519.293C377.173 492.049 384.144 486.584 377.759 476.196C369.952 463.495 351.763 459.034 339.888 459.409C337.269 459.492 336.582 458.096 314.969 464.936C276.029 477.261 265.563 466.825 248.463 478.714C231.943 490.201 240.039 501.389 224.111 514.677C198.291 536.217 168.86 515.978 150.537 533.821C133.206 550.698 134.942 591.258 155.237 612.365C178.245 636.292 216.927 626.68 242.857 620.315C248.313 618.976 275.84 611.65 303.688 588.717C319.093 576.029 329.431 562.805 335.94 553.121C337.485 551.183 339.931 548.806 343.298 548.265C347.341 547.615 350.739 549.928 352.37 550.934C360.938 556.217 375.506 559.253 380.715 555.469Z" fill="url(#paint24_linear_9_230)"/>
<path d="M357.854 541.7C364.573 534.892 390.431 545.951 408.005 561.519C428.652 579.809 427.976 595.565 446.374 618.672C455.52 630.16 455.782 674.462 432.091 660.728C415.633 651.187 406.718 637.861 389.559 611.596C372.338 585.237 349.455 550.211 357.854 541.7Z" fill="url(#paint25_linear_9_230)"/>
<path d="M532.164 911.474L523.228 894.841C521.959 892.478 520.07 890.505 517.765 889.133L513.648 886.684C513.648 886.684 504.131 886.937 502.969 892.989C503.054 900.592 518.697 916.759 528.379 922.994C529.986 924.029 532.272 925.401 533.573 924.563C535.774 923.145 533.81 916.252 532.164 911.474Z" fill="url(#paint26_linear_9_230)"/>
<path d="M515.216 877.299C514.341 884.683 516.143 888.413 517.981 890.458C519.274 891.898 529.984 907.611 526.079 910.447C524.317 911.727 510.981 896.858 509.641 894.542C508.428 892.445 507.74 892.991 507.364 887.122C507.117 883.258 506.165 880.188 505.443 878.273C508.701 877.948 511.958 877.624 515.216 877.299Z" fill="url(#paint27_linear_9_230)"/>
<path d="M526.353 818.552C526.353 818.552 535.804 828.683 534.976 840.386C534.147 852.087 517.68 835.919 515.206 830.29C512.73 824.662 509.76 816.613 509.76 816.613C509.76 816.613 520.313 809.243 526.353 818.552Z" fill="url(#paint28_linear_9_230)"/>
<path d="M522.081 802.14C522.081 802.14 520.327 814.623 525.272 820.898C527.735 824.024 530.97 826.614 530.203 829.306C529.688 831.11 527.444 832.506 525.475 832.409C521.706 832.223 519.323 826.586 517.641 822.61C515.158 816.738 513.27 803.99 513.27 803.99L522.081 802.14Z" fill="url(#paint29_linear_9_230)"/>
<path d="M515.552 812.931C518.232 811.79 520.912 810.649 523.592 809.509C527.338 799.543 531.692 783.271 528.92 763.921C521.793 714.159 474.141 690.122 468.853 687.559C456.589 694.551 444.302 704.147 444.436 715.414C444.607 729.558 464.229 735.996 483.399 755.672C494.906 767.483 507.479 785.324 515.552 812.931Z" fill="url(#paint30_linear_9_230)"/>
<path d="M516.32 882.975C523.476 847.219 519.639 818.555 516.152 802.111C510.882 777.256 500.164 726.699 465.115 709.497C457.461 705.74 446.637 702.588 433.072 691.734C421.745 682.67 414.331 672.899 409.804 665.978C363.572 655.043 321.87 662.687 304.64 688.086C302.649 691.021 297.615 697.425 297.057 706.503C295.8 726.985 317.106 750.431 339.823 754.356C368.695 759.345 356.069 751.252 381.861 759.655C389.075 762.005 427.973 756.99 440.679 769.864C456.843 786.241 461.333 791.018 464.914 797.192C475.576 815.576 483.641 829.136 485.67 847.159C486.143 851.357 486.744 859.858 492.164 868.773C496.326 875.616 501.708 880.04 505.681 882.739C509.227 882.818 512.774 882.897 516.32 882.975Z" fill="url(#paint31_linear_9_230)"/>
<path opacity="0.3" d="M297.057 706.503C297.614 697.425 302.649 691.021 304.64 688.086C321.87 662.687 363.571 655.043 409.804 665.978C414.332 672.899 421.744 682.671 433.072 691.734C446.637 702.588 457.461 705.74 465.115 709.497C486.517 720.001 498.838 742.94 506.395 764.872C496.159 750.713 487.858 747.245 481.59 747.509C472.618 747.886 469.019 755.765 458.257 755.288C447.97 754.831 445.754 746.406 434.301 744.861C424.438 743.53 417.501 749.262 410.146 753.199C379.586 769.558 341.205 751.954 339.453 751.259C320.574 743.765 295.737 728.015 297.057 706.503Z" fill="url(#paint32_linear_9_230)"/>
<path d="M484.233 724.303C479.066 724.303 471.123 724.566 461.602 726.02C416.419 732.923 405.091 756.057 367.842 763.535C359.03 765.304 319.798 773.18 301.457 751.233C288.29 735.476 288.647 707.101 301.504 695.264C306.945 690.255 312.587 690.086 349.054 688.478C362.788 687.873 376.517 687.188 390.253 686.633C448.397 684.285 459.295 679.67 470.379 688.719C475.549 692.94 483.273 702.187 484.233 724.303Z" fill="url(#paint33_linear_9_230)"/>
<path d="M351.659 544.394C351.659 544.394 305.084 533.456 286.1 557.396C282.614 561.791 279.976 567.467 278.409 578.236C270.423 633.117 313.28 663.548 298.601 693.056C292.772 704.774 281.622 708.804 274.656 729.677C273.476 733.21 269.211 745.992 273.945 749.697C278.115 752.959 284.278 745.275 295.995 746.073C308.403 746.918 311.787 756.235 320.008 754.416C325.368 753.229 327.454 748.488 334.809 736.553C345.458 719.274 350.782 710.635 354.761 707.494C370.459 695.099 383.865 709.462 401.86 697.059C408.374 692.568 431.618 659.117 424.746 668.332C406.115 647.463 401.099 629.696 400.018 617.214C398.831 603.53 402.451 597.09 398.096 581.071C398.096 581.071 393.237 563.198 378.349 548.42C376.212 546.299 373.682 544.105 351.659 544.394Z" fill="url(#paint34_linear_9_230)"/>
<path d="M335.352 515.428C336.127 518.297 340.116 533.701 333.958 538.046C332.623 538.988 329.997 539.626 324.742 540.903C321.302 541.739 318.408 542.293 316.364 542.648C316.8 545.244 317.905 549.447 321.124 553.153C330.148 563.541 346.936 559.837 349.328 559.268C357.765 557.264 366.009 554.186 367.948 552.47C370.901 549.856 373.227 547.89 374.561 545.946C371.179 544.528 364.3 540.68 359.76 539.542C356.367 538.693 353.194 538.127 350.316 537.752C349.688 534.769 349.059 531.786 348.43 528.803C344.07 524.344 339.711 519.887 335.352 515.428Z" fill="url(#paint35_linear_9_230)"/>
<path d="M335.466 523.204C335.466 523.204 337.224 534.554 348.423 535.976C358.451 537.249 364.652 512.85 359.239 506.912C357.434 504.932 353.143 503.184 349.52 503.481C346.972 503.691 338.526 507.432 337.782 516.121C335.969 514.404 333.802 513.997 332.787 514.811C331.5 515.843 332.365 518.598 332.562 519.222C333.241 521.385 334.745 522.668 335.466 523.204Z" fill="url(#paint36_linear_9_230)"/>
<path opacity="0.3" d="M424.747 668.332C422.505 665.821 420.471 663.358 418.607 660.94C408.799 658.224 400.398 657.466 393.656 657.497C378.447 657.567 370.331 661.578 359.674 655.913C347.579 649.483 349.133 639.582 337.532 634.718C325.322 629.599 317.25 636.546 305.686 635.055C298.703 634.155 290.033 629.977 280.719 616.942C289.028 649.076 309.412 671.323 298.601 693.057C292.771 704.775 281.622 708.805 274.655 729.677C273.476 733.211 269.211 745.993 273.945 749.697C278.115 752.96 284.278 745.276 295.995 746.074C308.403 746.918 311.787 756.236 320.008 754.416C325.368 753.229 327.454 748.488 334.809 736.553C345.457 719.275 350.781 710.636 354.76 707.494C370.459 695.099 383.866 709.463 401.86 697.059C408.375 692.568 431.618 659.117 424.747 668.332Z" fill="url(#paint37_linear_9_230)"/>
<path d="M343.36 674.769C344.521 671.131 345.682 667.492 346.843 663.853C331.697 660.554 310.729 655.604 289.15 649.163C285.77 648.153 281.752 646.895 280.276 643.474C276.134 633.876 298.615 622.508 306.429 600.655C313.654 580.445 307.64 553.251 297.863 550.52C277.516 544.838 211.326 636.835 238.618 672.682C254.045 692.946 298.341 693.949 343.36 674.769Z" fill="url(#paint38_linear_9_230)"/>
<path d="M402.13 672.165C404.005 670.342 420.779 592.615 425.603 570.118C426.173 567.46 429.425 566.453 431.408 568.314L454.664 590.143L437.28 683.649L426.048 689.834C426.048 689.834 399.937 674.296 402.13 672.165Z" fill="url(#paint39_linear_9_230)"/>
<path d="M357.551 678.54L372.187 593.079C372.942 588.666 376.97 585.579 381.427 585.996L445.645 592.004L427.228 689.772L365.823 688.549C360.584 688.445 356.666 683.704 357.551 678.54Z" fill="url(#paint40_linear_9_230)"/>
<path d="M346.843 663.853C355.95 658.377 367.44 662.883 368.181 663.187C370.292 664.049 373.381 665.621 376.573 668.554C376.941 669.002 381.305 674.419 379.921 676.303C378.81 677.813 374.149 676.858 368.441 673.716C366.108 673.514 362.644 673.399 358.534 673.999C350.985 675.102 347.638 677.683 344.775 675.761C342.678 674.354 341.821 671.189 342.42 668.77C343.063 666.171 345.302 664.781 346.843 663.853Z" fill="url(#paint41_linear_9_230)"/>
<path d="M381.773 620.406L426.817 624.217L428.004 610.185L382.96 606.375L381.773 620.406Z" fill="white"/>
<path d="M708.427 785.31C707.784 781.65 696.972 784.126 679.265 778.443C655.054 770.672 655.545 759.714 637.199 755.761C616.58 751.318 610.369 763.954 592.49 757.366C591.487 756.997 572.841 749.821 566.432 732.57C561 717.949 568.798 708.041 560.682 697.285C557.325 692.836 550.697 687.516 544.508 688.576C532.133 690.693 523.242 718.011 527.4 740.52C532.05 765.686 553.933 789.825 571.879 788.11C583.469 787.002 587.993 775.629 599.873 777.534C610.355 779.215 611.115 788.754 620.713 789.665C632.27 790.762 635.206 777.318 650.885 775.668C659.717 774.738 670.761 777.745 674.143 784.606C676.863 790.124 672.86 794.551 675.457 797.441C681.236 803.87 709.487 791.332 708.427 785.31Z" fill="url(#paint42_linear_9_230)"/>
<path opacity="0.3" d="M649.64 770.069C640.641 771.075 640.271 776.861 631.384 777.888C619.266 779.288 616.006 768.984 602.983 767.581C585.876 765.737 576.996 781.958 568.769 777.534C562.163 773.982 567.639 763.389 561.615 746.741C554.177 726.187 539.336 724.388 536.42 708.794C535.638 704.609 535.635 699.004 538.391 691.836C529.425 700.096 523.968 721.944 527.4 740.52C532.05 765.686 553.933 789.825 571.879 788.11C583.469 787.002 587.993 775.63 599.873 777.534C610.355 779.215 611.115 788.754 620.713 789.665C632.27 790.762 635.205 777.318 650.885 775.668C659.717 774.738 670.761 777.745 674.143 784.606C676.862 790.124 672.86 794.551 675.457 797.441C677.291 799.481 681.386 799.61 686.089 798.645C684.582 794.024 682.021 788.714 677.635 783.755C676.033 781.945 664.097 768.454 649.64 770.069Z" fill="url(#paint43_linear_9_230)"/>
<path d="M814.269 709.609C816.291 703.329 809.907 696.747 808.316 695.107C803.733 690.382 796.003 686.4 793.118 688.769C791.641 689.983 792.281 692.164 792.807 698.101C794.141 713.168 791.796 719.194 794.984 720.807C796.555 721.601 798.742 720.523 803.116 718.366C809.181 715.375 813.022 713.481 814.269 709.609Z" fill="url(#paint44_linear_9_230)"/>
<path d="M797.662 695.084C796.262 693.7 794.799 692.646 793.408 691.836C792.769 693.081 793.243 695.243 793.648 699.815C794.882 713.758 792.712 719.334 795.662 720.826C797.035 721.521 798.92 720.667 802.538 718.887C803.162 717.356 803.664 715.643 803.929 713.739C804.038 712.958 805.296 702.63 797.662 695.084Z" fill="url(#paint45_linear_9_230)"/>
<path d="M739.221 844.408C739.986 850.095 720.857 855.644 693.065 879.492C688.569 883.349 681.885 889.37 682.492 896.67C682.864 901.132 686.052 907.189 691.244 910.098C695.11 912.264 698.321 911.697 700.651 914.912C701.915 916.655 703.088 919.743 701.896 921.547C699.705 924.86 690.143 922.923 683.789 919.785C675.282 915.585 670.975 908.468 669.468 905.904C667.058 901.806 667.536 900.856 664.522 893.698C659.399 881.533 656.415 880.461 655.447 875.927C653.003 864.483 667.483 850.067 679.915 843.164C705.227 829.11 738.251 837.199 739.221 844.408Z" fill="url(#paint46_linear_9_230)"/>
<path d="M786.085 841.09C781.994 852.047 794.114 858.006 792.305 877.586C791.845 882.566 790.629 886.861 789.85 897.91C789.025 909.606 789.874 912.079 791.318 913.893C796.751 920.721 811.637 919.491 813.673 914.933C814.668 912.704 812.715 909.402 811.667 907.633C809.522 904.008 807.162 902.955 805.929 901.55C800.737 895.633 813.126 880.751 817.604 862.241C819.84 852.998 822.502 832.935 813.871 827.819C806.283 823.321 790.062 830.436 786.085 841.09Z" fill="url(#paint47_linear_9_230)"/>
<path d="M795.903 717.649C795.112 718.686 795.766 717.939 788.114 735.719C787.513 737.114 786.621 739.182 787.433 741.142C788.676 744.142 792.707 743.969 795.703 745.721C802.305 749.584 804.568 763.21 800.251 771.019C796.878 777.119 789.646 780.153 772.355 782.16C735.061 786.489 725.965 777.338 701.053 782.006C690.18 784.043 670.344 787.759 657.661 803.435C641.861 822.961 654.168 840.023 636.374 857.069C631.415 861.82 623.589 867.076 608.746 881.57C607.501 882.785 604.015 884.267 602.362 887.954C600.447 892.226 601.761 896.533 605.68 906.616C611.073 920.494 613.832 927.472 616.878 929.426C624.407 934.256 636.142 933.247 638.443 928.597C639.822 925.81 637.658 922.032 635.955 919.058C630.868 910.175 624.672 910.081 623.561 905.548C621.857 898.593 633.826 888.117 645.792 882.787C660.369 876.293 664.622 882.034 680.745 875.097C691.738 870.368 692.562 866.493 702.71 863.788C711.66 861.402 718.047 862.544 727.586 863.527C761.11 866.983 760.092 860.92 776.601 865.326C785.082 867.589 804.025 872.644 815.241 888.724C823.185 900.112 820.38 907.177 831.29 918.643C834.392 921.904 844 932.001 854.554 930.059C858.803 929.277 863.695 926.453 863.638 923.62C863.56 919.744 854.306 919.961 846.85 913.562C838.872 906.716 837.741 896.404 835.927 879.853C834.326 865.261 833.369 856.532 838.279 847.599C842.268 840.342 846.081 840.318 850.931 831.768C856.345 822.226 856.878 812.947 857.088 808.45C857.798 793.211 852.554 776.081 848.617 763.22C847.199 758.588 844.955 751.749 848.149 748.436C851.143 745.33 856.369 747.969 859.076 745.287C861.281 743.103 861.614 737.588 854.61 723.571C856.45 718.949 858.444 712.442 859.086 704.474C859.512 699.181 859.241 694.516 858.747 690.721C854.054 692.076 847.791 694.49 841.315 698.957C837.912 701.304 835.128 703.752 832.896 705.999C829.858 704.746 822.899 702.394 814.611 704.298C804.267 706.676 798.58 714.137 795.903 717.649Z" fill="url(#paint48_linear_9_230)"/>
<path d="M797.145 739.687C797.145 739.687 804.836 746.393 809.898 737.624C809.898 737.624 816.96 745.464 824.669 739.881C824.669 739.881 818.522 750.616 809.898 740.435C809.898 740.435 805.302 749.585 797.145 739.687Z" fill="url(#paint49_linear_9_230)"/>
<path d="M819.85 731.903C819.85 731.903 820.435 715.583 839.65 720.378C839.65 720.378 836.418 733.958 819.85 731.903Z" fill="url(#paint50_linear_9_230)"/>
<path d="M806.566 730.274C806.566 730.274 812.815 716.798 799.114 716.958C799.114 716.958 796.82 727.228 806.566 730.274Z" fill="url(#paint51_linear_9_230)"/>
<path d="M809.854 738.356C809.854 738.356 804.51 733.698 805.444 732.115C806.377 730.532 815.351 732.441 815.818 733.377C816.284 734.313 809.854 738.356 809.854 738.356Z" fill="url(#paint52_linear_9_230)"/>
<path d="M844.192 713.604C844.673 715.657 846.683 716.007 850.626 719.599C852 720.85 853.156 722.084 854.114 723.213C855.806 718.89 857.602 712.898 858.19 705.596C858.508 701.649 858.41 698.081 858.126 694.99C855.864 698.183 853.723 700.709 851.942 702.637C847.325 707.636 843.455 710.457 844.192 713.604Z" fill="url(#paint53_linear_9_230)"/>
<path opacity="0.3" d="M845.597 922.791C841.31 920.081 840.475 917.143 832.845 901.951C815.76 867.937 812.349 867.543 812.316 858.716C812.246 840.442 826.822 831.512 821.958 823.879C819.2 819.55 812.611 819.439 796.763 819.836C764.36 820.646 748.159 821.051 743.264 822.635C717.826 830.863 722.003 844.595 695.363 854.984C673.272 863.599 667.481 855.294 646.219 865.559C642.143 867.527 614.251 880.993 613.87 899.774C613.6 913.129 627.362 923.212 624.757 926.213C623.271 927.925 617.825 925.759 612.384 922.966C614.029 926.405 615.421 928.492 616.877 929.427C624.406 934.257 636.141 933.248 638.442 928.597C639.822 925.811 637.658 922.033 635.954 919.059C630.867 910.176 624.671 910.081 623.561 905.549C621.856 898.594 633.825 888.118 645.791 882.787C660.368 876.293 664.621 882.034 680.744 875.098C691.738 870.369 692.562 866.494 702.709 863.789C711.66 861.403 718.047 862.544 727.586 863.528C761.109 866.984 760.092 860.921 776.601 865.326C785.081 867.59 804.024 872.645 815.24 888.724C823.185 900.113 820.38 907.178 831.289 918.643C834.392 921.905 843.999 932.002 854.553 930.06C857.809 929.46 861.434 927.661 862.929 925.578C856.818 926.488 850.687 926.009 845.597 922.791Z" fill="url(#paint54_linear_9_230)"/>
<defs>
<linearGradient id="paint0_linear_9_230" x1="292.371" y1="420.385" x2="188.365" y2="498.846" gradientUnits="userSpaceOnUse">
<stop offset="0.0036" stop-color="#E38DDD"/>
<stop offset="1" stop-color="#9571F6"/>
</linearGradient>
<linearGradient id="paint1_linear_9_230" x1="433.802" y1="150.698" x2="152.533" y2="498.825" gradientUnits="userSpaceOnUse">
<stop stop-color="#FFC444"/>
<stop offset="0.9964" stop-color="#F36F56"/>
</linearGradient>
<linearGradient id="paint2_linear_9_230" x1="794.677" y1="57.6556" x2="286.683" y2="474.387" gradientUnits="userSpaceOnUse">
<stop stop-color="#311944"/>
<stop offset="1" stop-color="#A03976"/>
</linearGradient>
<linearGradient id="paint3_linear_9_230" x1="279.095" y1="193.273" x2="468.891" y2="302.736" gradientUnits="userSpaceOnUse">
<stop stop-color="#311944"/>
<stop offset="1" stop-color="#A03976"/>
</linearGradient>
<linearGradient id="paint4_linear_9_230" x1="327.876" y1="303.002" x2="872.96" y2="326.975" gradientUnits="userSpaceOnUse">
<stop stop-color="#D8DEE8"/>
<stop offset="0.9964" stop-color="#AABBCC"/>
</linearGradient>
<linearGradient id="paint5_linear_9_230" x1="330.261" y1="284.529" x2="886.623" y2="308.998" gradientUnits="userSpaceOnUse">
<stop offset="0.494" stop-color="#EAEDF3"/>
<stop offset="1" stop-color="white"/>
</linearGradient>
<linearGradient id="paint6_linear_9_230" x1="433.131" y1="277.12" x2="359.839" y2="247.018" gradientUnits="userSpaceOnUse">
<stop offset="0.494" stop-color="#EAEDF3"/>
<stop offset="1" stop-color="white"/>
</linearGradient>
<linearGradient id="paint7_linear_9_230" x1="491.613" y1="290.481" x2="372.993" y2="252.624" gradientUnits="userSpaceOnUse">
<stop offset="0.494" stop-color="#EAEDF3"/>
<stop offset="1" stop-color="white"/>
</linearGradient>
<linearGradient id="paint8_linear_9_230" x1="463.924" y1="288.026" x2="809.356" y2="303.218" gradientUnits="userSpaceOnUse">
<stop stop-color="#D8DEE8"/>
<stop offset="0.9964" stop-color="#AABBCC"/>
</linearGradient>
<linearGradient id="paint9_linear_9_230" x1="701.919" y1="88.2861" x2="725.541" y2="600.823" gradientUnits="userSpaceOnUse">
<stop stop-color="#311944"/>
<stop offset="1" stop-color="#A03976"/>
</linearGradient>
<linearGradient id="paint10_linear_9_230" x1="842.006" y1="193.884" x2="647.927" y2="353.096" gradientUnits="userSpaceOnUse">
<stop stop-color="#311944"/>
<stop offset="1" stop-color="#A03976"/>
</linearGradient>
<linearGradient id="paint11_linear_9_230" x1="727.627" y1="30.4072" x2="471.749" y2="240.316" gradientUnits="userSpaceOnUse">
<stop stop-color="#311944"/>
<stop offset="1" stop-color="#A03976"/>
</linearGradient>
<linearGradient id="paint12_linear_9_230" x1="864.031" y1="912.001" x2="792.172" y2="748.556" gradientUnits="userSpaceOnUse">
<stop stop-color="#AA80F9"/>
<stop offset="0.9964" stop-color="#6165D7"/>
</linearGradient>
<linearGradient id="paint13_linear_9_230" x1="720.536" y1="791.491" x2="193.376" y2="791.491" gradientUnits="userSpaceOnUse">
<stop stop-color="#AA80F9"/>
<stop offset="0.9964" stop-color="#6165D7"/>
</linearGradient>
<linearGradient id="paint14_linear_9_230" x1="767.93" y1="509.315" x2="884.482" y2="901.911" gradientUnits="userSpaceOnUse">
<stop offset="0.0036" stop-color="#E38DDD"/>
<stop offset="1" stop-color="#9571F6"/>
</linearGradient>
<linearGradient id="paint15_linear_9_230" x1="720.536" y1="649.298" x2="193.376" y2="649.298" gradientUnits="userSpaceOnUse">
<stop offset="0.0036" stop-color="#E38DDD"/>
<stop offset="1" stop-color="#9571F6"/>
</linearGradient>
<linearGradient id="paint16_linear_9_230" x1="987.833" y1="503.541" x2="860.693" y2="504.931" gradientUnits="userSpaceOnUse">
<stop stop-color="#AA80F9"/>
<stop offset="0.9964" stop-color="#6165D7"/>
</linearGradient>
<linearGradient id="paint17_linear_9_230" x1="720.536" y1="450.167" x2="193.376" y2="450.167" gradientUnits="userSpaceOnUse">
<stop stop-color="#AA80F9"/>
<stop offset="0.9964" stop-color="#6165D7"/>
</linearGradient>
<linearGradient id="paint18_linear_9_230" x1="720.536" y1="554.724" x2="193.376" y2="554.724" gradientUnits="userSpaceOnUse">
<stop stop-color="#AA80F9"/>
<stop offset="0.9964" stop-color="#6165D7"/>
</linearGradient>
<linearGradient id="paint19_linear_9_230" x1="875.223" y1="589.903" x2="899.332" y2="554.21" gradientUnits="userSpaceOnUse">
<stop stop-color="#FFC444"/>
<stop offset="0.9964" stop-color="#F36F56"/>
</linearGradient>
<linearGradient id="paint20_linear_9_230" x1="881.176" y1="581.09" x2="915.219" y2="530.689" gradientUnits="userSpaceOnUse">
<stop stop-color="#AA80F9"/>
<stop offset="0.9964" stop-color="#6165D7"/>
</linearGradient>
<linearGradient id="paint21_linear_9_230" x1="218.829" y1="548.024" x2="618.451" y2="1295.54" gradientUnits="userSpaceOnUse">
<stop stop-color="#FF9085"/>
<stop offset="1" stop-color="#FB6FBB"/>
</linearGradient>
<linearGradient id="paint22_linear_9_230" x1="259.002" y1="526.549" x2="658.622" y2="1274.06" gradientUnits="userSpaceOnUse">
<stop stop-color="#FF9085"/>
<stop offset="1" stop-color="#FB6FBB"/>
</linearGradient>
<linearGradient id="paint23_linear_9_230" x1="218.828" y1="548.022" x2="618.452" y2="1295.54" gradientUnits="userSpaceOnUse">
<stop stop-color="#FF9085"/>
<stop offset="1" stop-color="#FB6FBB"/>
</linearGradient>
<linearGradient id="paint24_linear_9_230" x1="391.144" y1="449.141" x2="109.766" y2="662.95" gradientUnits="userSpaceOnUse">
<stop stop-color="#311944"/>
<stop offset="1" stop-color="#6B3976"/>
</linearGradient>
<linearGradient id="paint25_linear_9_230" x1="449.944" y1="598.954" x2="359.056" y2="603.787" gradientUnits="userSpaceOnUse">
<stop offset="0.0036" stop-color="#E38DDD"/>
<stop offset="1" stop-color="#9571F6"/>
</linearGradient>
<linearGradient id="paint26_linear_9_230" x1="539.094" y1="915.609" x2="502.174" y2="893.644" gradientUnits="userSpaceOnUse">
<stop stop-color="#311944"/>
<stop offset="1" stop-color="#6B3976"/>
</linearGradient>
<linearGradient id="paint27_linear_9_230" x1="527.902" y1="925.749" x2="446.726" y2="719.446" gradientUnits="userSpaceOnUse">
<stop stop-color="#FFC444"/>
<stop offset="0.9964" stop-color="#F36F56"/>
</linearGradient>
<linearGradient id="paint28_linear_9_230" x1="534.513" y1="828.679" x2="510.47" y2="829.958" gradientUnits="userSpaceOnUse">
<stop stop-color="#311944"/>
<stop offset="1" stop-color="#6B3976"/>
</linearGradient>
<linearGradient id="paint29_linear_9_230" x1="551.959" y1="893.958" x2="506.435" y2="778.263" gradientUnits="userSpaceOnUse">
<stop stop-color="#FFC444"/>
<stop offset="0.9964" stop-color="#F36F56"/>
</linearGradient>
<linearGradient id="paint30_linear_9_230" x1="493.032" y1="698.093" x2="472.75" y2="868.948" gradientUnits="userSpaceOnUse">
<stop stop-color="#40447E"/>
<stop offset="0.9964" stop-color="#3C3B6B"/>
</linearGradient>
<linearGradient id="paint31_linear_9_230" x1="462.346" y1="900.933" x2="413.7" y2="771.368" gradientUnits="userSpaceOnUse">
<stop stop-color="#40447E"/>
<stop offset="0.9964" stop-color="#3C3B6B"/>
</linearGradient>
<linearGradient id="paint32_linear_9_230" x1="462.528" y1="900.868" x2="413.882" y2="771.302" gradientUnits="userSpaceOnUse">
<stop stop-color="#40447E"/>
<stop offset="0.9964" stop-color="#3C3B6B"/>
</linearGradient>
<linearGradient id="paint33_linear_9_230" x1="392.174" y1="686.32" x2="371.94" y2="856.776" gradientUnits="userSpaceOnUse">
<stop stop-color="#40447E"/>
<stop offset="0.9964" stop-color="#3C3B6B"/>
</linearGradient>
<linearGradient id="paint34_linear_9_230" x1="354.7" y1="607.207" x2="327.467" y2="773.593" gradientUnits="userSpaceOnUse">
<stop offset="0.0036" stop-color="#E38DDD"/>
<stop offset="1" stop-color="#9571F6"/>
</linearGradient>
<linearGradient id="paint35_linear_9_230" x1="339.814" y1="578.486" x2="352.797" y2="499.906" gradientUnits="userSpaceOnUse">
<stop stop-color="#FFC444"/>
<stop offset="0.9964" stop-color="#F36F56"/>
</linearGradient>
<linearGradient id="paint36_linear_9_230" x1="347.734" y1="508.666" x2="333.493" y2="610.733" gradientUnits="userSpaceOnUse">
<stop stop-color="#FFC444"/>
<stop offset="0.9964" stop-color="#F36F56"/>
</linearGradient>
<linearGradient id="paint37_linear_9_230" x1="426.657" y1="679.032" x2="268.758" y2="687.428" gradientUnits="userSpaceOnUse">
<stop stop-color="#AA80F9"/>
<stop offset="0.9964" stop-color="#6165D7"/>
</linearGradient>
<linearGradient id="paint38_linear_9_230" x1="298.776" y1="598.053" x2="271.543" y2="764.439" gradientUnits="userSpaceOnUse">
<stop offset="0.0036" stop-color="#E38DDD"/>
<stop offset="1" stop-color="#9571F6"/>
</linearGradient>
<linearGradient id="paint39_linear_9_230" x1="413.225" y1="662.853" x2="490.274" y2="510.164" gradientUnits="userSpaceOnUse">
<stop stop-color="#311944"/>
<stop offset="1" stop-color="#6B3976"/>
</linearGradient>
<linearGradient id="paint40_linear_9_230" x1="445.126" y1="703.974" x2="389.571" y2="618.96" gradientUnits="userSpaceOnUse">
<stop stop-color="#311944"/>
<stop offset="1" stop-color="#6B3976"/>
</linearGradient>
<linearGradient id="paint41_linear_9_230" x1="369.866" y1="662.862" x2="334.051" y2="700.399" gradientUnits="userSpaceOnUse">
<stop stop-color="#FFC444"/>
<stop offset="0.9964" stop-color="#F36F56"/>
</linearGradient>
<linearGradient id="paint42_linear_9_230" x1="606.837" y1="704.761" x2="657.473" y2="970.602" gradientUnits="userSpaceOnUse">
<stop stop-color="#FFC444"/>
<stop offset="0.9964" stop-color="#F36F56"/>
</linearGradient>
<linearGradient id="paint43_linear_9_230" x1="526.364" y1="745.531" x2="686.089" y2="745.531" gradientUnits="userSpaceOnUse">
<stop stop-color="#FFC444"/>
<stop offset="0.9964" stop-color="#F36F56"/>
</linearGradient>
<linearGradient id="paint44_linear_9_230" x1="792.207" y1="704.566" x2="814.661" y2="704.566" gradientUnits="userSpaceOnUse">
<stop stop-color="#FFC444"/>
<stop offset="0.9964" stop-color="#F36F56"/>
</linearGradient>
<linearGradient id="paint45_linear_9_230" x1="793.095" y1="706.452" x2="804.071" y2="706.452" gradientUnits="userSpaceOnUse">
<stop stop-color="#FF9085"/>
<stop offset="1" stop-color="#FB6FBB"/>
</linearGradient>
<linearGradient id="paint46_linear_9_230" x1="655.174" y1="879.364" x2="739.243" y2="879.364" gradientUnits="userSpaceOnUse">
<stop stop-color="#FFC444"/>
<stop offset="0.9964" stop-color="#F36F56"/>
</linearGradient>
<linearGradient id="paint47_linear_9_230" x1="785.236" y1="872.565" x2="819.822" y2="872.565" gradientUnits="userSpaceOnUse">
<stop stop-color="#FFC444"/>
<stop offset="0.9964" stop-color="#F36F56"/>
</linearGradient>
<linearGradient id="paint48_linear_9_230" x1="738.062" y1="722.488" x2="729.353" y2="1016.11" gradientUnits="userSpaceOnUse">
<stop stop-color="#FFC444"/>
<stop offset="0.9964" stop-color="#F36F56"/>
</linearGradient>
<linearGradient id="paint49_linear_9_230" x1="811.568" y1="726.726" x2="810.946" y2="739.012" gradientUnits="userSpaceOnUse">
<stop stop-color="#311944"/>
<stop offset="1" stop-color="#893976"/>
</linearGradient>
<linearGradient id="paint50_linear_9_230" x1="835.101" y1="689.079" x2="830.954" y2="717.695" gradientUnits="userSpaceOnUse">
<stop stop-color="#311944"/>
<stop offset="1" stop-color="#893976"/>
</linearGradient>
<linearGradient id="paint51_linear_9_230" x1="808.712" y1="685.255" x2="804.565" y2="713.871" gradientUnits="userSpaceOnUse">
<stop stop-color="#311944"/>
<stop offset="1" stop-color="#893976"/>
</linearGradient>
<linearGradient id="paint52_linear_9_230" x1="805.334" y1="734.932" x2="815.842" y2="734.932" gradientUnits="userSpaceOnUse">
<stop stop-color="#311944"/>
<stop offset="1" stop-color="#893976"/>
</linearGradient>
<linearGradient id="paint53_linear_9_230" x1="844.101" y1="709.102" x2="858.388" y2="709.102" gradientUnits="userSpaceOnUse">
<stop stop-color="#FF9085"/>
<stop offset="1" stop-color="#FB6FBB"/>
</linearGradient>
<linearGradient id="paint54_linear_9_230" x1="612.384" y1="876.144" x2="862.93" y2="876.144" gradientUnits="userSpaceOnUse">
<stop stop-color="#FFC444"/>
<stop offset="0.9964" stop-color="#F36F56"/>
</linearGradient>
</defs>
</svg>
